<mxfile host="app.diagrams.net" modified="2023-11-23T06:28:59.932Z" agent="Mozilla/5.0 (Windows NT 10.0; Win64; x64) AppleWebKit/537.36 (KHTML, like Gecko) Chrome/118.0.0.0 Safari/537.36" etag="LOJdX_QM8MzycGk-NKSp" version="22.1.3" type="github">
  <diagram name="第 1 页" id="sxt587UQz8CqB05BVhxj">
    <mxGraphModel dx="1434" dy="758" grid="1" gridSize="10" guides="1" tooltips="1" connect="1" arrows="1" fold="1" page="1" pageScale="1" pageWidth="827" pageHeight="1169" math="0" shadow="0">
      <root>
        <mxCell id="0" />
        <mxCell id="1" parent="0" />
        <mxCell id="nRUCw8HpvnktB76-C9-a-2" value="" style="rounded=0;whiteSpace=wrap;html=1;" vertex="1" parent="1">
          <mxGeometry x="70" y="120" width="170" height="320" as="geometry" />
        </mxCell>
        <mxCell id="nRUCw8HpvnktB76-C9-a-3" value="&lt;b&gt;配置1&lt;/b&gt;&lt;br&gt;&lt;ul&gt;&lt;li&gt;日志类型：&lt;/li&gt;&lt;li&gt;微服务：&lt;/li&gt;&lt;li&gt;业务：&lt;/li&gt;&lt;li&gt;日志路径&lt;/li&gt;&lt;/ul&gt;" style="rounded=1;whiteSpace=wrap;html=1;align=left;" vertex="1" parent="1">
          <mxGeometry x="80" y="160" width="130" height="110" as="geometry" />
        </mxCell>
        <mxCell id="nRUCw8HpvnktB76-C9-a-4" value="&lt;b&gt;配置2&lt;/b&gt;&lt;br&gt;&lt;ul&gt;&lt;li&gt;日志类型：&lt;/li&gt;&lt;li&gt;微服务：&lt;/li&gt;&lt;li&gt;业务：&lt;/li&gt;&lt;li&gt;日志路径&lt;/li&gt;&lt;/ul&gt;" style="rounded=1;whiteSpace=wrap;html=1;align=left;" vertex="1" parent="1">
          <mxGeometry x="80" y="290" width="130" height="110" as="geometry" />
        </mxCell>
        <mxCell id="nRUCw8HpvnktB76-C9-a-5" value="&lt;b&gt;filebeat配置&lt;/b&gt;" style="text;html=1;strokeColor=none;fillColor=none;align=center;verticalAlign=middle;whiteSpace=wrap;rounded=0;" vertex="1" parent="1">
          <mxGeometry x="70" y="80" width="110" height="30" as="geometry" />
        </mxCell>
        <mxCell id="nRUCw8HpvnktB76-C9-a-6" value="" style="rounded=0;whiteSpace=wrap;html=1;" vertex="1" parent="1">
          <mxGeometry x="470" y="135" width="220" height="160" as="geometry" />
        </mxCell>
        <mxCell id="nRUCw8HpvnktB76-C9-a-7" value="&lt;b&gt;配置1&lt;/b&gt;&lt;br&gt;&lt;ul&gt;&lt;li&gt;日志类型：&lt;/li&gt;&lt;li&gt;微服务：&lt;/li&gt;&lt;li&gt;业务：&lt;/li&gt;&lt;li&gt;日志路径&lt;/li&gt;&lt;/ul&gt;" style="rounded=1;whiteSpace=wrap;html=1;align=left;" vertex="1" parent="1">
          <mxGeometry x="490" y="160" width="130" height="110" as="geometry" />
        </mxCell>
        <mxCell id="nRUCw8HpvnktB76-C9-a-8" value="&lt;b&gt;ilogtail配置文件&lt;br&gt;&lt;/b&gt;命名：业务名称-微服务-日志类型-文件路径" style="text;html=1;strokeColor=none;fillColor=none;align=left;verticalAlign=middle;whiteSpace=wrap;rounded=0;" vertex="1" parent="1">
          <mxGeometry x="470" y="100" width="330" height="30" as="geometry" />
        </mxCell>
        <mxCell id="nRUCw8HpvnktB76-C9-a-9" value="" style="endArrow=none;html=1;rounded=0;exitX=1;exitY=0.5;exitDx=0;exitDy=0;entryX=0;entryY=0.5;entryDx=0;entryDy=0;" edge="1" parent="1" source="nRUCw8HpvnktB76-C9-a-3" target="nRUCw8HpvnktB76-C9-a-6">
          <mxGeometry width="50" height="50" relative="1" as="geometry">
            <mxPoint x="390" y="400" as="sourcePoint" />
            <mxPoint x="440" y="350" as="targetPoint" />
          </mxGeometry>
        </mxCell>
        <mxCell id="nRUCw8HpvnktB76-C9-a-11" value="" style="rounded=0;whiteSpace=wrap;html=1;" vertex="1" parent="1">
          <mxGeometry x="350" y="400" width="360" height="320" as="geometry" />
        </mxCell>
        <mxCell id="nRUCw8HpvnktB76-C9-a-12" value="&lt;b&gt;元数据1&lt;/b&gt;&lt;br&gt;&lt;ul&gt;&lt;li&gt;config_name：&lt;/li&gt;&lt;li&gt;file_name：&lt;/li&gt;&lt;li&gt;业务：&lt;/li&gt;&lt;li&gt;日志路径&lt;/li&gt;&lt;/ul&gt;" style="rounded=1;whiteSpace=wrap;html=1;align=left;" vertex="1" parent="1">
          <mxGeometry x="380" y="440" width="130" height="110" as="geometry" />
        </mxCell>
        <mxCell id="nRUCw8HpvnktB76-C9-a-13" value="&lt;b&gt;checkpoint文件&lt;/b&gt;" style="text;html=1;strokeColor=none;fillColor=none;align=center;verticalAlign=middle;whiteSpace=wrap;rounded=0;" vertex="1" parent="1">
          <mxGeometry x="350" y="370" width="110" height="30" as="geometry" />
        </mxCell>
        <mxCell id="nRUCw8HpvnktB76-C9-a-14" value="&lt;b&gt;元数据2&lt;/b&gt;&lt;br&gt;&lt;ul&gt;&lt;li&gt;config_name：&lt;/li&gt;&lt;li&gt;file_name：&lt;/li&gt;&lt;li&gt;业务：&lt;/li&gt;&lt;li&gt;日志路径&lt;/li&gt;&lt;/ul&gt;" style="rounded=1;whiteSpace=wrap;html=1;align=left;" vertex="1" parent="1">
          <mxGeometry x="380" y="585" width="130" height="110" as="geometry" />
        </mxCell>
        <mxCell id="nRUCw8HpvnktB76-C9-a-15" value="" style="endArrow=none;html=1;rounded=0;entryX=0.5;entryY=1;entryDx=0;entryDy=0;exitX=1.015;exitY=0.073;exitDx=0;exitDy=0;exitPerimeter=0;" edge="1" parent="1" source="nRUCw8HpvnktB76-C9-a-12" target="nRUCw8HpvnktB76-C9-a-6">
          <mxGeometry width="50" height="50" relative="1" as="geometry">
            <mxPoint x="390" y="420" as="sourcePoint" />
            <mxPoint x="440" y="370" as="targetPoint" />
          </mxGeometry>
        </mxCell>
      </root>
    </mxGraphModel>
  </diagram>
</mxfile>
